<?xml version="1.0" encoding="UTF-8" standalone="no"?>
<!-- Created with Inkscape (http://www.inkscape.org/) -->

<svg
   xmlns:dc="http://purl.org/dc/elements/1.1/"
   xmlns:cc="http://creativecommons.org/ns#"
   xmlns:rdf="http://www.w3.org/1999/02/22-rdf-syntax-ns#"
   xmlns:svg="http://www.w3.org/2000/svg"
   xmlns="http://www.w3.org/2000/svg"
   xmlns:sodipodi="http://sodipodi.sourceforge.net/DTD/sodipodi-0.dtd"
   xmlns:inkscape="http://www.inkscape.org/namespaces/inkscape"
   id="svg4066"
   version="1.1"
   inkscape:version="0.47 r22583"
   width="585.15997"
   height="226.78999"
   xml:space="preserve"
   sodipodi:docname="Accuracy.pdf"><metadata
     id="metadata4072"><rdf:RDF><cc:Work
         rdf:about=""><dc:format>image/svg+xml</dc:format><dc:type
           rdf:resource="http://purl.org/dc/dcmitype/StillImage" /><dc:title></dc:title></cc:Work></rdf:RDF></metadata><defs
     id="defs4070"><inkscape:perspective
       sodipodi:type="inkscape:persp3d"
       inkscape:vp_x="0 : 0.5 : 1"
       inkscape:vp_y="0 : 1000 : 0"
       inkscape:vp_z="1 : 0.5 : 1"
       inkscape:persp3d-origin="0.5 : 0.33333333 : 1"
       id="perspective4074" /><clipPath
       clipPathUnits="userSpaceOnUse"
       id="clipPath4082"><path
         d="M -1.089e-6,527.52 612,527.52 612,720 -1.089e-6,720 l 0,-192.48 z"
         clip-rule="evenodd"
         id="path4084" /></clipPath><clipPath
       clipPathUnits="userSpaceOnUse"
       id="clipPath4092"><path
         d="m 0,0 474.75,0 0,183.75 L 0,183.75 0,0 z"
         id="path4094" /></clipPath><clipPath
       clipPathUnits="userSpaceOnUse"
       id="clipPath4180"><path
         d="m 0.75,0.74997 473.25,0 0,182.25 -473.25,0 0,-182.25 z"
         clip-rule="evenodd"
         id="path4182" /></clipPath><clipPath
       clipPathUnits="userSpaceOnUse"
       id="clipPath4192"><path
         d="m 0.75,0.74997 473.25,0 0,182.25 -473.25,0 0,-182.25 z"
         clip-rule="evenodd"
         id="path4194" /></clipPath><clipPath
       clipPathUnits="userSpaceOnUse"
       id="clipPath4204"><path
         d="m 0.75,0.74997 473.25,0 0,182.25 -473.25,0 0,-182.25 z"
         clip-rule="evenodd"
         id="path4206" /></clipPath><clipPath
       clipPathUnits="userSpaceOnUse"
       id="clipPath4216"><path
         d="m 0.75,0.74997 473.25,0 0,182.25 -473.25,0 0,-182.25 z"
         clip-rule="evenodd"
         id="path4218" /></clipPath><clipPath
       clipPathUnits="userSpaceOnUse"
       id="clipPath4228"><path
         d="m 0.75,0.74997 473.25,0 0,182.25 -473.25,0 0,-182.25 z"
         clip-rule="evenodd"
         id="path4230" /></clipPath><clipPath
       clipPathUnits="userSpaceOnUse"
       id="clipPath4240"><path
         d="m 0.75,0.74997 473.25,0 0,182.25 -473.25,0 0,-182.25 z"
         clip-rule="evenodd"
         id="path4242" /></clipPath><clipPath
       clipPathUnits="userSpaceOnUse"
       id="clipPath4252"><path
         d="m 60,6.75 62.25,0 0,21.75 -62.25,0 0,-21.75 z"
         clip-rule="evenodd"
         id="path4254" /></clipPath><clipPath
       clipPathUnits="userSpaceOnUse"
       id="clipPath4264"><path
         d="m 132.75,6.75 48.75,0 0,21.75 -48.75,0 0,-21.75 z"
         clip-rule="evenodd"
         id="path4266" /></clipPath><clipPath
       clipPathUnits="userSpaceOnUse"
       id="clipPath4276"><path
         d="m 201,6.75 43.5,0 0,21.75 -43.5,0 0,-21.75 z"
         clip-rule="evenodd"
         id="path4278" /></clipPath><clipPath
       clipPathUnits="userSpaceOnUse"
       id="clipPath4288"><path
         d="m 266.25,6.75 44.25,0 0,21.75 -44.25,0 0,-21.75 z"
         clip-rule="evenodd"
         id="path4290" /></clipPath><clipPath
       clipPathUnits="userSpaceOnUse"
       id="clipPath4300"><path
         d="m 332.25,6.75 43.5,0 0,21.75 -43.5,0 0,-21.75 z"
         clip-rule="evenodd"
         id="path4302" /></clipPath><clipPath
       clipPathUnits="userSpaceOnUse"
       id="clipPath4312"><path
         d="m 398.25,6.75 43.5,0 0,21.75 -43.5,0 0,-21.75 z"
         clip-rule="evenodd"
         id="path4314" /></clipPath><clipPath
       clipPathUnits="userSpaceOnUse"
       id="clipPath4324"><path
         d="m 6.75,32.25 94.5,0 0,144 -94.5,0 0,-144 z"
         clip-rule="evenodd"
         id="path4326" /></clipPath><clipPath
       clipPathUnits="userSpaceOnUse"
       id="clipPath4336"><path
         d="m 225.75,0.74997 59.25,0 0,15.75 -59.25,0 0,-15.75 z"
         clip-rule="evenodd"
         id="path4338" /></clipPath><clipPath
       clipPathUnits="userSpaceOnUse"
       id="clipPath4354"><path
         d="m 252,160.5 93.75,0 0,22.5 -93.75,0 0,-22.5 z"
         clip-rule="evenodd"
         id="path4356" /></clipPath><clipPath
       clipPathUnits="userSpaceOnUse"
       id="clipPath4368"><path
         d="m 366,160.5 108,0 0,22.5 -108,0 0,-22.5 z"
         clip-rule="evenodd"
         id="path4370" /></clipPath><clipPath
       clipPathUnits="userSpaceOnUse"
       id="clipPath4382"><path
         d="m 252,148.5 84.75,0 0,23.25 -84.75,0 0,-23.25 z"
         clip-rule="evenodd"
         id="path4384" /></clipPath><clipPath
       clipPathUnits="userSpaceOnUse"
       id="clipPath4396"><path
         d="m 366,148.5 100.5,0 0,23.25 -100.5,0 0,-23.25 z"
         clip-rule="evenodd"
         id="path4398" /></clipPath></defs><sodipodi:namedview
     pagecolor="#ffffff"
     bordercolor="#666666"
     borderopacity="1"
     objecttolerance="10"
     gridtolerance="10"
     guidetolerance="10"
     inkscape:pageopacity="0"
     inkscape:pageshadow="2"
     inkscape:window-width="1440"
     inkscape:window-height="810"
     id="namedview4068"
     showgrid="false"
     inkscape:zoom="1.3485026"
     inkscape:cx="299.09136"
     inkscape:cy="75.163268"
     inkscape:window-x="-4"
     inkscape:window-y="-4"
     inkscape:window-maximized="1"
     inkscape:current-layer="g4076" /><g
     id="g4076"
     inkscape:groupmode="layer"
     inkscape:label="Accuracy"
     transform="matrix(1.25,0,0,-1.25,-92.799178,902.07361)"><g
       id="g4078"
       transform="translate(1.0067494,1.0067494)"><g
         id="g4080"
         clip-path="url(#clipPath4082)"><g
           id="g4086"
           transform="matrix(6.5,0,0,2.507,73.5,539.49)"><g
             id="g4088"
             transform="scale(0.15166,0.39184)"><g
               id="g4090"
               clip-path="url(#clipPath4092)"><path
                 d="m 0.75,0.74997 473.25,0 0,182.25 -473.25,0 0,-182.25 z"
                 style="fill:#ffffff;fill-opacity:1;fill-rule:evenodd;stroke:none"
                 id="path4096" /><path
                 d="m 58.5,37.5 394.5,0 0,134.25 -394.5,0 0,-134.25 z"
                 style="fill:#ffffff;fill-opacity:1;fill-rule:evenodd;stroke:none"
                 id="path4098" /><path
                 d="m 58.125,61.875 394.505,0 m -394.505,24.75 394.505,0 m -394.505,24.745 394.505,0 m -394.505,24 394.505,0 m -394.505,24.75 394.505,0"
                 style="fill:none;stroke:#868686;stroke-width:0.75;stroke-linecap:butt;stroke-linejoin:round;stroke-miterlimit:10;stroke-opacity:1;stroke-dasharray:none"
                 id="path4100" /><path
                 d="m 67.5,155.25 12,0 0,-117.75 -12,0 0,117.75 z m 66,0 11.25,0 0,-117.75 -11.25,0 0,117.75 z m 65.25,0.75 12,0 0,-118.5 -12,0 0,118.5 z m 66,-2.25 12,0 0,-116.25 -12,0 0,116.25 z m 65.25,-1.5 12,0 0,-114.75 -12,0 0,114.75 z m 66,-1.5 12,0 0,-113.25 -12,0 0,113.25 z"
                 style="fill:#4f81bd;fill-opacity:1;fill-rule:nonzero;stroke:none"
                 id="path4102" /><path
                 d="m 79.5,154.5 12,0 0,-117 -12,0 0,117 z m 65.25,0.75 12,0 0,-117.75 -12,0 0,117.75 z m 66,0 12,0 0,-117.75 -12,0 0,117.75 z m 66,-2.25 12,0 0,-115.5 -12,0 0,115.5 z m 65.25,-1.5 12,0 0,-114 -12,0 0,114 z m 66,-3 12,0 0,-111 -12,0 0,111 z"
                 style="fill:#c0504d;fill-opacity:1;fill-rule:nonzero;stroke:none"
                 id="path4104" /><path
                 d="m 91.5,84.75 12,0 0,-47.25 -12,0 0,47.25 z m 65.25,1.5 12,0 0,-48.75 -12,0 0,48.75 z m 66,0.75 12,0 0,-49.5 -12,0 0,49.5 z m 66,-6.75 11.25,0 0,-42.75 -11.25,0 0,42.75 z m 65.25,-10.5 12,0 0,-32.25 -12,0 0,32.25 z m 66,-4.5 12,0 0,-27.75 -12,0 0,27.75 z"
                 style="fill:#95b3d7;fill-opacity:1;fill-rule:nonzero;stroke:none"
                 id="path4106" /><path
                 d="m 103.5,82.5 12,0 0,-45 -12,0 0,45 z m 65.25,2.25 12,0 0,-47.25 -12,0 0,47.25 z m 66,2.25 12,0 0,-49.5 -12,0 0,49.5 z M 300,75.75 l 12,0 0,-38.25 -12,0 0,38.25 z m 66,-10.5 12,0 0,-27.75 -12,0 0,27.75 z m 66,-8.25 12,0 0,-19.5 -12,0 0,19.5 z"
                 style="fill:#d99694;fill-opacity:1;fill-rule:nonzero;stroke:none"
                 id="path4108" /><path
                 d="m 73.875,154.88 0,0 0,0 m -2.25,0 4.5,0 m -4.5,0 4.5,0"
                 style="fill:none;stroke:#000000;stroke-width:0.75075001;stroke-linecap:butt;stroke-linejoin:round;stroke-miterlimit:10;stroke-opacity:1;stroke-dasharray:none"
                 id="path4110" /><path
                 d="m 139.12,154.88 0,0 0,0 m -2.25,0 4.5,0 m -4.5,0 4.5,0"
                 style="fill:none;stroke:#000000;stroke-width:0.75075001;stroke-linecap:butt;stroke-linejoin:round;stroke-miterlimit:10;stroke-opacity:1;stroke-dasharray:none"
                 id="path4112" /><path
                 d="m 205.12,154.88 0,0.37 0,0.37 m -2.25,-0.74 4.5,0 m -4.5,0.74 4.5,0"
                 style="fill:#000000;fill-opacity:1;fill-rule:nonzero;stroke:none"
                 id="path4114" /><path
                 d="m 205.12,154.88 0,0.37 0,0.37 m -2.25,-0.74 4.5,0 m -4.5,0.74 4.5,0"
                 style="fill:none;stroke:#000000;stroke-width:0.75075001;stroke-linecap:butt;stroke-linejoin:round;stroke-miterlimit:10;stroke-opacity:1;stroke-dasharray:none"
                 id="path4116" /><path
                 d="m 271.12,153.38 0,0 0,0 m -2.25,0 4.5,0 m -4.5,0 4.5,0"
                 style="fill:none;stroke:#000000;stroke-width:0.75075001;stroke-linecap:butt;stroke-linejoin:round;stroke-miterlimit:10;stroke-opacity:1;stroke-dasharray:none"
                 id="path4118" /><path
                 d="m 336.37,151.88 0,0 0,0 m -2.25,0 4.5,0 m -4.5,0 4.5,0"
                 style="fill:none;stroke:#000000;stroke-width:0.75075001;stroke-linecap:butt;stroke-linejoin:round;stroke-miterlimit:10;stroke-opacity:1;stroke-dasharray:none"
                 id="path4120" /><path
                 d="m 402.37,150.38 0,0 0,0 m -2.25,0 4.5,0 m -4.5,0 4.5,0"
                 style="fill:none;stroke:#000000;stroke-width:0.75075001;stroke-linecap:butt;stroke-linejoin:round;stroke-miterlimit:10;stroke-opacity:1;stroke-dasharray:none"
                 id="path4122" /><path
                 d="m 85.875,154.13 0,0 0,0 m -2.25,0 4.5,0 m -4.5,0 4.5,0"
                 style="fill:none;stroke:#000000;stroke-width:0.75075001;stroke-linecap:butt;stroke-linejoin:round;stroke-miterlimit:10;stroke-opacity:1;stroke-dasharray:none"
                 id="path4124" /><path
                 d="m 151.12,154.88 0,0 0,0 m -2.25,0 4.5,0 m -4.5,0 4.5,0"
                 style="fill:none;stroke:#000000;stroke-width:0.75075001;stroke-linecap:butt;stroke-linejoin:round;stroke-miterlimit:10;stroke-opacity:1;stroke-dasharray:none"
                 id="path4126" /><path
                 d="m 217.12,154.88 0,0.37 0,0.37 m -2.25,-0.74 4.5,0 m -4.5,0.74 4.5,0"
                 style="fill:#000000;fill-opacity:1;fill-rule:nonzero;stroke:none"
                 id="path4128" /><path
                 d="m 217.12,154.88 0,0.37 0,0.37 m -2.25,-0.74 4.5,0 m -4.5,0.74 4.5,0"
                 style="fill:none;stroke:#000000;stroke-width:0.75075001;stroke-linecap:butt;stroke-linejoin:round;stroke-miterlimit:10;stroke-opacity:1;stroke-dasharray:none"
                 id="path4130" /><path
                 d="m 283.12,152.62 0,0 0,0 m -2.25,0 4.5,0 m -4.5,0 4.5,0"
                 style="fill:none;stroke:#000000;stroke-width:0.75075001;stroke-linecap:butt;stroke-linejoin:round;stroke-miterlimit:10;stroke-opacity:1;stroke-dasharray:none"
                 id="path4132" /><path
                 d="m 348.37,151.13 0,0 0,0 m -2.25,0 4.5,0 m -4.5,0 4.5,0"
                 style="fill:none;stroke:#000000;stroke-width:0.75075001;stroke-linecap:butt;stroke-linejoin:round;stroke-miterlimit:10;stroke-opacity:1;stroke-dasharray:none"
                 id="path4134" /><path
                 d="m 414.37,148.13 0,0 0,0 m -2.25,0 4.5,0 m -4.5,0 4.5,0"
                 style="fill:none;stroke:#000000;stroke-width:0.75075001;stroke-linecap:butt;stroke-linejoin:round;stroke-miterlimit:10;stroke-opacity:1;stroke-dasharray:none"
                 id="path4136" /><path
                 d="m 97.875,84.375 0,0 0,0 m -2.25,0 4.495,0 m -4.495,0 4.495,0"
                 style="fill:none;stroke:#000000;stroke-width:0.75075001;stroke-linecap:butt;stroke-linejoin:round;stroke-miterlimit:10;stroke-opacity:1;stroke-dasharray:none"
                 id="path4138" /><path
                 d="m 163.12,85.875 0,0 0,0 m -2.25,0 4.5,0 m -4.5,0 4.5,0"
                 style="fill:none;stroke:#000000;stroke-width:0.75075001;stroke-linecap:butt;stroke-linejoin:round;stroke-miterlimit:10;stroke-opacity:1;stroke-dasharray:none"
                 id="path4140" /><path
                 d="m 229.12,86.625 0,0.375 0,0.375 m -2.25,-0.75 4.5,0 m -4.5,0.75 4.5,0"
                 style="fill:#000000;fill-opacity:1;fill-rule:nonzero;stroke:none"
                 id="path4142" /><path
                 d="m 229.12,86.625 0,0.375 0,0.375 m -2.25,-0.75 4.5,0 m -4.5,0.75 4.5,0"
                 style="fill:none;stroke:#000000;stroke-width:0.75075001;stroke-linecap:butt;stroke-linejoin:round;stroke-miterlimit:10;stroke-opacity:1;stroke-dasharray:none"
                 id="path4144" /><path
                 d="m 295.12,79.875 0,0 0,0 m -2.25,0 4.5,0 m -4.5,0 4.5,0"
                 style="fill:none;stroke:#000000;stroke-width:0.75075001;stroke-linecap:butt;stroke-linejoin:round;stroke-miterlimit:10;stroke-opacity:1;stroke-dasharray:none"
                 id="path4146" /><path
                 d="m 360.37,69.375 0,0.375 0,0.375 m -2.25,-0.75 4.5,0 m -4.5,0.75 4.5,0"
                 style="fill:#000000;fill-opacity:1;fill-rule:nonzero;stroke:none"
                 id="path4148" /><path
                 d="m 360.37,69.375 0,0.375 0,0.375 m -2.25,-0.75 4.5,0 m -4.5,0.75 4.5,0"
                 style="fill:none;stroke:#000000;stroke-width:0.75075001;stroke-linecap:butt;stroke-linejoin:round;stroke-miterlimit:10;stroke-opacity:1;stroke-dasharray:none"
                 id="path4150" /><path
                 d="m 426.37,64.875 0,0 0,0 m -2.25,0 4.5,0 m -4.5,0 4.5,0"
                 style="fill:none;stroke:#000000;stroke-width:0.75075001;stroke-linecap:butt;stroke-linejoin:round;stroke-miterlimit:10;stroke-opacity:1;stroke-dasharray:none"
                 id="path4152" /><path
                 d="m 109.87,82.125 0,0 0,0 m -2.25,0 4.5,0 m -4.5,0 4.5,0"
                 style="fill:none;stroke:#000000;stroke-width:0.75075001;stroke-linecap:butt;stroke-linejoin:round;stroke-miterlimit:10;stroke-opacity:1;stroke-dasharray:none"
                 id="path4154" /><path
                 d="m 175.12,84.375 0,0 0,0 m -2.25,0 4.5,0 m -4.5,0 4.5,0"
                 style="fill:none;stroke:#000000;stroke-width:0.75075001;stroke-linecap:butt;stroke-linejoin:round;stroke-miterlimit:10;stroke-opacity:1;stroke-dasharray:none"
                 id="path4156" /><path
                 d="m 241.12,85.875 0,0.75 0,0.75 m -2.25,-1.5 4.5,0 m -4.5,1.5 4.5,0"
                 style="fill:#000000;fill-opacity:1;fill-rule:nonzero;stroke:none"
                 id="path4158" /><path
                 d="m 241.12,85.875 0,0.75 0,0.75 m -2.25,-1.5 4.5,0 m -4.5,1.5 4.5,0"
                 style="fill:none;stroke:#000000;stroke-width:0.75075001;stroke-linecap:butt;stroke-linejoin:round;stroke-miterlimit:10;stroke-opacity:1;stroke-dasharray:none"
                 id="path4160" /><path
                 d="m 306.37,75.375 0,0 0,0 m -2.25,0 4.5,0 m -4.5,0 4.5,0"
                 style="fill:none;stroke:#000000;stroke-width:0.75075001;stroke-linecap:butt;stroke-linejoin:round;stroke-miterlimit:10;stroke-opacity:1;stroke-dasharray:none"
                 id="path4162" /><path
                 d="m 372.37,64.875 0,0 0,0 m -2.25,0 4.5,0 m -4.5,0 4.5,0"
                 style="fill:none;stroke:#000000;stroke-width:0.75075001;stroke-linecap:butt;stroke-linejoin:round;stroke-miterlimit:10;stroke-opacity:1;stroke-dasharray:none"
                 id="path4164" /><path
                 d="m 438.37,56.625 0,0 0,0 m -2.25,0 4.5,0 m -4.5,0 4.5,0"
                 style="fill:none;stroke:#000000;stroke-width:0.75075001;stroke-linecap:butt;stroke-linejoin:round;stroke-miterlimit:10;stroke-opacity:1;stroke-dasharray:none"
                 id="path4166" /><path
                 d="m 58.125,37.875 0,134.245"
                 style="fill:none;stroke:#868686;stroke-width:0.75;stroke-linecap:butt;stroke-linejoin:round;stroke-miterlimit:10;stroke-opacity:1;stroke-dasharray:none"
                 id="path4168" /><path
                 d="m 55.125,37.875 3,0 m -3,24 3,0 m -3,24.75 3,0 m -3,24.745 3,0 m -3,24 3,0 m -3,24.75 3,0"
                 style="fill:none;stroke:#868686;stroke-width:0.75;stroke-linecap:butt;stroke-linejoin:round;stroke-miterlimit:10;stroke-opacity:1;stroke-dasharray:none"
                 id="path4170" /><path
                 d="m 58.125,37.875 394.505,0"
                 style="fill:none;stroke:#868686;stroke-width:0.75;stroke-linecap:butt;stroke-linejoin:round;stroke-miterlimit:10;stroke-opacity:1;stroke-dasharray:none"
                 id="path4172" /><path
                 d="m 58.125,37.875 0,-3 m 65.995,3 0,-3 m 66.01,3 0,-3 m 65.25,3 0,-3 m 66,3 0,-3 m 65.25,3 0,-3 m 66,3 0,-3"
                 style="fill:none;stroke:#868686;stroke-width:0.75;stroke-linecap:butt;stroke-linejoin:round;stroke-miterlimit:10;stroke-opacity:1;stroke-dasharray:none"
                 id="path4174" /><g
                 id="g4176"><g
                   id="g4178"
                   clip-path="url(#clipPath4180)"><text
                     transform="matrix(1,0,0,-1,31.9,34.075)"
                     id="text4184"><tspan
                       style="font-size:9.80000019px;font-variant:normal;font-weight:normal;writing-mode:lr-tb;fill:#000000;fill-opacity:1;fill-rule:nonzero;stroke:none;font-family:Calibri;-inkscape-font-specification:Calibri"
                       x="0 5.2495999 10.4992"
                       y="0"
                       sodipodi:role="line"
                       id="tspan4186">89%</tspan></text>
</g></g><g
                 id="g4188"><g
                   id="g4190"
                   clip-path="url(#clipPath4192)"><text
                     transform="matrix(1,0,0,-1,31.9,58.6)"
                     id="text4196"><tspan
                       style="font-size:9.80000019px;font-variant:normal;font-weight:normal;writing-mode:lr-tb;fill:#000000;fill-opacity:1;fill-rule:nonzero;stroke:none;font-family:Calibri;-inkscape-font-specification:Calibri"
                       x="0 5.2495999 10.4992"
                       y="0"
                       sodipodi:role="line"
                       id="tspan4198">91%</tspan></text>
</g></g><g
                 id="g4200"><g
                   id="g4202"
                   clip-path="url(#clipPath4204)"><text
                     transform="matrix(1,0,0,-1,31.9,83.125)"
                     id="text4208"><tspan
                       style="font-size:9.80000019px;font-variant:normal;font-weight:normal;writing-mode:lr-tb;fill:#000000;fill-opacity:1;fill-rule:nonzero;stroke:none;font-family:Calibri;-inkscape-font-specification:Calibri"
                       x="0 5.2495999 10.4992"
                       y="0"
                       sodipodi:role="line"
                       id="tspan4210">93%</tspan></text>
</g></g><g
                 id="g4212"><g
                   id="g4214"
                   clip-path="url(#clipPath4216)"><text
                     transform="matrix(1,0,0,-1,31.9,107.65)"
                     id="text4220"><tspan
                       style="font-size:9.80000019px;font-variant:normal;font-weight:normal;writing-mode:lr-tb;fill:#000000;fill-opacity:1;fill-rule:nonzero;stroke:none;font-family:Calibri;-inkscape-font-specification:Calibri"
                       x="0 5.2495999 10.4992"
                       y="0"
                       sodipodi:role="line"
                       id="tspan4222">95%</tspan></text>
</g></g><g
                 id="g4224"><g
                   id="g4226"
                   clip-path="url(#clipPath4228)"><text
                     transform="matrix(1,0,0,-1,31.9,132.17)"
                     id="text4232"><tspan
                       style="font-size:9.80000019px;font-variant:normal;font-weight:normal;writing-mode:lr-tb;fill:#000000;fill-opacity:1;fill-rule:nonzero;stroke:none;font-family:Calibri;-inkscape-font-specification:Calibri"
                       x="0 5.2495999 10.4992"
                       y="0"
                       sodipodi:role="line"
                       id="tspan4234">97%</tspan></text>
</g></g><g
                 id="g4236"><g
                   id="g4238"
                   clip-path="url(#clipPath4240)"><text
                     transform="matrix(1,0,0,-1,31.9,156.7)"
                     id="text4244"><tspan
                       style="font-size:9.80000019px;font-variant:normal;font-weight:normal;writing-mode:lr-tb;fill:#000000;fill-opacity:1;fill-rule:nonzero;stroke:none;font-family:Calibri;-inkscape-font-specification:Calibri"
                       x="0 5.2495999 10.4992"
                       y="0"
                       sodipodi:role="line"
                       id="tspan4246">99%</tspan></text>
</g></g><g
                 id="g4248"><g
                   id="g4250"
                   clip-path="url(#clipPath4252)"><text
                     transform="matrix(1,0,0,-1,66.875,18.075)"
                     id="text4256"><tspan
                       style="font-size:9.80000019px;font-variant:normal;font-weight:normal;writing-mode:lr-tb;fill:#000000;fill-opacity:1;fill-rule:nonzero;stroke:none;font-family:Calibri;-inkscape-font-specification:Calibri"
                       x="0 4.4981999 10.4958 15.7486 20.9916 23.2456 28.4886 31.4776 33.731602 38.974602 41.2286 44.227402"
                       y="0"
                       sodipodi:role="line"
                       id="tspan4258">SNR=Infinity</tspan></text>
</g></g><g
                 id="g4260"><g
                   id="g4262"
                   clip-path="url(#clipPath4264)"><text
                     transform="matrix(1,0,0,-1,138.68,18.075)"
                     id="text4268"><tspan
                       style="font-size:9.80000019px;font-variant:normal;font-weight:normal;writing-mode:lr-tb;fill:#000000;fill-opacity:1;fill-rule:nonzero;stroke:none;font-family:Calibri;-inkscape-font-specification:Calibri"
                       x="0 4.4981999 10.5546 15.827 21.0896 26.3522 31.614799"
                       y="0"
                       sodipodi:role="line"
                       id="tspan4270">SNR=100</tspan></text>
</g></g><g
                 id="g4272"><g
                   id="g4274"
                   clip-path="url(#clipPath4276)"><text
                     transform="matrix(1,0,0,-1,207.48,18.075)"
                     id="text4280"><tspan
                       style="font-size:9.80000019px;font-variant:normal;font-weight:normal;writing-mode:lr-tb;fill:#000000;fill-opacity:1;fill-rule:nonzero;stroke:none;font-family:Calibri;-inkscape-font-specification:Calibri"
                       x="0 4.4981999 10.5252 15.7976 21.0602 26.3228"
                       y="0"
                       sodipodi:role="line"
                       id="tspan4282">SNR=33</tspan></text>
</g></g><g
                 id="g4284"><g
                   id="g4286"
                   clip-path="url(#clipPath4288)"><text
                     transform="matrix(1,0,0,-1,273.27,18.075)"
                     id="text4292"><tspan
                       style="font-size:9.80000019px;font-variant:normal;font-weight:normal;writing-mode:lr-tb;fill:#000000;fill-opacity:1;fill-rule:nonzero;stroke:none;font-family:Calibri;-inkscape-font-specification:Calibri"
                       x="0 4.4981999 10.5252 15.778 21.021 26.264"
                       y="0"
                       sodipodi:role="line"
                       id="tspan4294">SNR=20</tspan></text>
</g></g><g
                 id="g4296"><g
                   id="g4298"
                   clip-path="url(#clipPath4300)"><text
                     transform="matrix(1,0,0,-1,339.08,18.075)"
                     id="text4304"><tspan
                       style="font-size:9.80000019px;font-variant:normal;font-weight:normal;writing-mode:lr-tb;fill:#000000;fill-opacity:1;fill-rule:nonzero;stroke:none;font-family:Calibri;-inkscape-font-specification:Calibri"
                       x="0 4.4981999 10.4958 15.7486 20.9916 26.2346"
                       y="0"
                       sodipodi:role="line"
                       id="tspan4306">SNR=14</tspan></text>
</g></g><g
                 id="g4308"><g
                   id="g4310"
                   clip-path="url(#clipPath4312)"><text
                     transform="matrix(1,0,0,-1,404.88,18.075)"
                     id="text4316"><tspan
                       style="font-size:9.80000019px;font-variant:normal;font-weight:normal;writing-mode:lr-tb;fill:#000000;fill-opacity:1;fill-rule:nonzero;stroke:none;font-family:Calibri;-inkscape-font-specification:Calibri"
                       x="0 4.4981999 10.4958 15.7486 20.9916 26.2346"
                       y="0"
                       sodipodi:role="line"
                       id="tspan4318">SNR=11</tspan></text>
</g></g><g
                 id="g4320"><g
                   id="g4322"
                   clip-path="url(#clipPath4324)"><text
                     transform="matrix(0,1,1,0,17.9,38.2)"
                     id="text4328"><tspan
                       style="font-size:9.77499962px;font-variant:normal;font-weight:bold;writing-mode:lr-tb;fill:#000000;fill-opacity:1;fill-rule:nonzero;stroke:none;font-family:Calibri;-inkscape-font-specification:'Calibri,Bold'"
                       x="0 4.525825 9.7945499 14.320375 22.609575 27.8783 33.127476 36.920174 41.445999 45.209373 47.48695 52.745899 58.024399 59.519974 65.531601 69.304749 73.077904 78.327072 82.119774 86.645599 90.418747 94.944572 99.460625 102.51042 107.00693 112.27565 116.7917 119.06927 122.07997 128.10138"
                       y="0"
                       sodipodi:role="line"
                       id="tspan4330">Segmentation Accuracy (TCF, D)</tspan></text>
</g></g><g
                 id="g4332"><g
                   id="g4334"
                   clip-path="url(#clipPath4336)"><text
                     transform="matrix(1,0,0,-1,232.05,4.375)"
                     id="text4340"><tspan
                       style="font-size:9.80000019px;font-variant:normal;font-weight:bold;writing-mode:lr-tb;fill:#000000;fill-opacity:1;fill-rule:nonzero;stroke:none;font-family:Calibri;-inkscape-font-specification:'Calibri,Bold'"
                       x="0 6.7424002 12.0148 14.2394 17.9928 23.2358 24.735201 29.2236 34.466599 38.964802 44.207802"
                       y="0"
                       sodipodi:role="line"
                       id="tspan4342">Noise Level</tspan></text>
</g></g><path
                 d="m 244.88,159.37 228.75,0 0,23.25 -228.75,0 0,-23.25 z"
                 style="fill:#ffffff;fill-opacity:1;fill-rule:evenodd;stroke:none"
                 id="path4344" /><path
                 d="m 244.88,159.37 228.75,0 0,23.25 -228.75,0 0,-23.25 z"
                 style="fill:none;stroke:#000000;stroke-width:0.75;stroke-linecap:butt;stroke-linejoin:round;stroke-miterlimit:10;stroke-opacity:1;stroke-dasharray:none"
                 id="path4346" /><path
                 d="m 250.5,174 5.25,0 0,6 -5.25,0 0,-6 z"
                 style="fill:#4f81bd;fill-opacity:1;fill-rule:evenodd;stroke:none"
                 id="path4348" /><g
                 id="g4350"><g
                   id="g4352"
                   clip-path="url(#clipPath4354)"><text
                     transform="matrix(1,0,0,-1,258.6,173.77)"
                     id="text4358"><tspan
                       style="font-size:9.80000019px;font-variant:normal;font-weight:normal;writing-mode:lr-tb;fill:#000000;fill-opacity:1;fill-rule:nonzero;stroke:none;font-family:Calibri;-inkscape-font-specification:Calibri"
                       x="0 6.7620001 12.0246 15.7878 17.287201 23.304399 25.558399 30.1056 35.368198 39.131401 41.385399 44.433201 49.695801 57.222198 59.486 62.504398 67.031998 72.294601 76.792801"
                       y="0"
                       sodipodi:role="line"
                       id="tspan4360">Our Algorithm (TCF)</tspan></text>
</g></g><path
                 d="m 364.5,174 5.25,0 0,6 -5.25,0 0,-6 z"
                 style="fill:#c0504d;fill-opacity:1;fill-rule:evenodd;stroke:none"
                 id="path4362" /><g
                 id="g4364"><g
                   id="g4366"
                   clip-path="url(#clipPath4368)"><text
                     transform="matrix(1,0,0,-1,373.08,173.77)"
                     id="text4372"><tspan
                       style="font-size:9.80000019px;font-variant:normal;font-weight:normal;writing-mode:lr-tb;fill:#000000;fill-opacity:1;fill-rule:nonzero;stroke:none;font-family:Calibri;-inkscape-font-specification:Calibri"
                       x="0 5.9976001 11.2406 17.238199 19.482401 25.48 29.978201 33.721802 37.465401 42.708401 49.460602 52.4496 57.7024 62.2006 67.443604 72.6866 74.930801 77.9198 82.417999 87.641403 92.139603"
                       y="0"
                       sodipodi:role="line"
                       id="tspan4374">GPU Narrow Band (TCF)</tspan></text>
</g></g><path
                 d="m 250.5,162.75 5.25,0 0,5.25 -5.25,0 0,-5.25 z"
                 style="fill:#95b3d7;fill-opacity:1;fill-rule:evenodd;stroke:none"
                 id="path4376" /><g
                 id="g4378"><g
                   id="g4380"
                   clip-path="url(#clipPath4382)"><text
                     transform="matrix(1,0,0,-1,258.6,162.25)"
                     id="text4386"><tspan
                       style="font-size:9.77499962px;font-variant:normal;font-weight:normal;writing-mode:lr-tb;fill:#000000;fill-opacity:1;fill-rule:nonzero;stroke:none;font-family:Calibri;-inkscape-font-specification:Calibri"
                       x="0 6.7642999 12.033025 15.7964 17.291975 23.3036 25.551849 30.107 35.375725 39.139099 41.387348 44.437149 49.705875 57.232624 59.500423 62.511124 68.522751"
                       y="0"
                       sodipodi:role="line"
                       id="tspan4388">Our Algorithm (D)</tspan></text>
</g></g><path
                 d="m 364.5,162.75 5.25,0 0,5.25 -5.25,0 0,-5.25 z"
                 style="fill:#d99694;fill-opacity:1;fill-rule:evenodd;stroke:none"
                 id="path4390" /><g
                 id="g4392"><g
                   id="g4394"
                   clip-path="url(#clipPath4396)"><text
                     transform="matrix(1,0,0,-1,373.08,162.25)"
                     id="text4400"><tspan
                       style="font-size:9.77499962px;font-variant:normal;font-weight:normal;writing-mode:lr-tb;fill:#000000;fill-opacity:1;fill-rule:nonzero;stroke:none;font-family:Calibri;-inkscape-font-specification:Calibri"
                       x="0 6.0018501 11.24125 17.243099 19.481575 25.483425 29.979925 33.723751 37.467575 42.706974 49.461498 52.452648 57.701824 62.198326 67.437721 72.677124 74.915604 77.906754 83.918373"
                       y="0"
                       sodipodi:role="line"
                       id="tspan4402">GPU Narrow Band (D)</tspan></text>
</g></g></g></g></g></g></g></g></svg>